<?xml version="1.0" encoding="UTF-8" standalone="no"?>
<!-- Created with Inkscape (http://www.inkscape.org/) -->

<svg
   width="64pt"
   height="64pt"
   viewBox="0 0 22.577778 22.577778"
   version="1.1"
   id="svg831"
   inkscape:version="1.1.2 (b8e25be833, 2022-02-05)"
   sodipodi:docname="Export - Unblash - 64px.svg"
   inkscape:export-filename="E:\Project Design\TR Icon Design Project\Carlos - Icon Design Project\September\Done\100%\Expanded\18 - Chandelier.png"
   inkscape:export-xdpi="576"
   inkscape:export-ydpi="576"
   xmlns:inkscape="http://www.inkscape.org/namespaces/inkscape"
   xmlns:sodipodi="http://sodipodi.sourceforge.net/DTD/sodipodi-0.dtd"
   xmlns="http://www.w3.org/2000/svg"
   xmlns:svg="http://www.w3.org/2000/svg"
   xmlns:rdf="http://www.w3.org/1999/02/22-rdf-syntax-ns#"
   xmlns:cc="http://creativecommons.org/ns#"
   xmlns:dc="http://purl.org/dc/elements/1.1/">
  <defs
     id="defs825">
    <pattern
       id="EMFhbasepattern"
       patternUnits="userSpaceOnUse"
       width="6"
       height="6"
       x="0"
       y="0" />
    <pattern
       id="EMFhbasepattern-9"
       patternUnits="userSpaceOnUse"
       width="6"
       height="6"
       x="0"
       y="0" />
    <pattern
       id="EMFhbasepattern-0"
       patternUnits="userSpaceOnUse"
       width="6"
       height="6"
       x="0"
       y="0" />
    <pattern
       id="EMFhbasepattern-7"
       patternUnits="userSpaceOnUse"
       width="6"
       height="6"
       x="0"
       y="0" />
    <pattern
       id="EMFhbasepattern-2"
       patternUnits="userSpaceOnUse"
       width="6"
       height="6"
       x="0"
       y="0" />
    <pattern
       id="EMFhbasepattern-98"
       patternUnits="userSpaceOnUse"
       width="6"
       height="6"
       x="0"
       y="0" />
    <pattern
       id="EMFhbasepattern-6"
       patternUnits="userSpaceOnUse"
       width="6"
       height="6"
       x="0"
       y="0" />
    <pattern
       id="EMFhbasepattern-01"
       patternUnits="userSpaceOnUse"
       width="6"
       height="6"
       x="0"
       y="0" />
    <pattern
       id="EMFhbasepattern-07"
       patternUnits="userSpaceOnUse"
       width="6"
       height="6"
       x="0"
       y="0" />
    <pattern
       id="EMFhbasepattern-8"
       patternUnits="userSpaceOnUse"
       width="6"
       height="6"
       x="0"
       y="0" />
    <pattern
       id="EMFhbasepattern-4"
       patternUnits="userSpaceOnUse"
       width="6"
       height="6"
       x="0"
       y="0" />
    <pattern
       id="EMFhbasepattern-40"
       patternUnits="userSpaceOnUse"
       width="6"
       height="6"
       x="0"
       y="0" />
    <pattern
       id="EMFhbasepattern-08"
       patternUnits="userSpaceOnUse"
       width="6"
       height="6"
       x="0"
       y="0" />
    <pattern
       id="EMFhbasepattern-04"
       patternUnits="userSpaceOnUse"
       width="6"
       height="6"
       x="0"
       y="0" />
    <pattern
       id="EMFhbasepattern-014"
       patternUnits="userSpaceOnUse"
       width="6"
       height="6"
       x="0"
       y="0" />
    <pattern
       id="EMFhbasepattern-27"
       patternUnits="userSpaceOnUse"
       width="6"
       height="6"
       x="0"
       y="0" />
    <pattern
       id="EMFhbasepattern-09"
       patternUnits="userSpaceOnUse"
       width="6"
       height="6"
       x="0"
       y="0" />
    <pattern
       id="EMFhbasepattern-5"
       patternUnits="userSpaceOnUse"
       width="6"
       height="6"
       x="0"
       y="0" />
    <pattern
       id="EMFhbasepattern-018"
       patternUnits="userSpaceOnUse"
       width="6"
       height="6"
       x="0"
       y="0" />
  </defs>
  <sodipodi:namedview
     id="base"
     pagecolor="#ffffff"
     bordercolor="#666666"
     borderopacity="1.0"
     inkscape:pageopacity="0.0"
     inkscape:pageshadow="2"
     inkscape:zoom="8.7304688"
     inkscape:cx="42.666667"
     inkscape:cy="47.07651"
     inkscape:document-units="pt"
     inkscape:current-layer="layer1"
     showgrid="false"
     units="pt"
     inkscape:window-width="958"
     inkscape:window-height="1041"
     inkscape:window-x="953"
     inkscape:window-y="0"
     inkscape:window-maximized="0"
     inkscape:pagecheckerboard="true"
     inkscape:showpageshadow="false"
     inkscape:object-paths="true"
     inkscape:snap-intersection-paths="true"
     inkscape:snap-smooth-nodes="true"
     inkscape:snap-midpoints="true"
     showguides="true"
     inkscape:snap-bbox="true"
     inkscape:bbox-nodes="true"
     inkscape:snap-nodes="false"
     inkscape:snap-global="true"
     inkscape:snap-others="false">
    <inkscape:grid
       type="xygrid"
       id="grid1378" />
    <sodipodi:guide
       position="0.97013831,21.607643"
       orientation="78.000048,0"
       id="guide1380"
       inkscape:locked="false" />
    <sodipodi:guide
       position="0.97013831,0.97013129"
       orientation="0,78.000005"
       id="guide1382"
       inkscape:locked="false" />
    <sodipodi:guide
       position="21.607639,0.97013129"
       orientation="-78.000048,0"
       id="guide1384"
       inkscape:locked="false" />
    <sodipodi:guide
       position="21.607639,21.607643"
       orientation="0,-78.000005"
       id="guide1386"
       inkscape:locked="false" />
  </sodipodi:namedview>
  <metadata
     id="metadata828">
    <rdf:RDF>
      <cc:Work
         rdf:about="">
        <dc:format>image/svg+xml</dc:format>
        <dc:type
           rdf:resource="http://purl.org/dc/dcmitype/StillImage" />
      </cc:Work>
    </rdf:RDF>
  </metadata>
  <g
     inkscape:label="Icon"
     inkscape:groupmode="layer"
     id="layer1"
     transform="translate(0,-274.42223)">
    <path
       id="rect118946"
       style="color:#000000;display:inline;fill:#ffffff;stroke-width:1;stroke-linecap:round;stroke-linejoin:round;-inkscape-stroke:none"
       d="m 3.9652573,275.39238 c -0.9152077,0 -1.6636679,0.74779 -1.6636641,1.66301 v 17.30822 c -2.5e-6,0.37445 0.1254039,0.7213 0.3361133,1.00054 H 1.3017039 c -0.1828206,7.1e-4 -0.33084949,0.14874 -0.33156282,0.33156 -7.1458e-4,0.18383 0.14773072,0.33344 0.33156282,0.33415 H 21.273472 c 0.184849,7.3e-4 0.334882,-0.1493 0.334164,-0.33415 -7.17e-4,-0.18384 -0.150328,-0.33228 -0.334164,-0.33156 h -1.3334 c 0.210704,-0.27924 0.336114,-0.62609 0.336113,-1.00054 v -17.30822 c 4e-6,-0.91522 -0.748458,-1.66301 -1.663664,-1.66301 z m 0,0.66571 h 3.6614902 v 2.3294 c -5e-6,0.36374 0.3019794,0.66573 0.665726,0.66573 h 5.9928305 c 0.363746,0 0.66573,-0.30199 0.665725,-0.66573 v -2.3294 h 3.661492 c 0.555421,0 0.99729,0.44187 0.997287,0.9973 v 17.30822 c 3e-6,0.55542 -0.441866,1.00054 -0.997287,1.00054 H 3.9652573 c -0.5554228,0 -0.9972914,-0.44512 -0.9972889,-1.00054 v -17.30822 c -2.5e-6,-0.55543 0.4418661,-0.9973 0.9972889,-0.9973 z m 4.3272162,0 h 5.9928305 v 2.3294 H 8.2924735 Z m -4.3272162,0.66313 c -0.1838371,7.2e-4 -0.3322849,0.15033 -0.3315628,0.33417 3.535e-4,0.18307 0.1484868,0.3315 0.3315628,0.33221 h 2.6635521 c 0.1830761,-7.1e-4 0.3312094,-0.14914 0.3315629,-0.33221 7.221e-4,-0.18384 -0.1477257,-0.33345 -0.3315629,-0.33417 z m 5.3271043,0 c -0.1848537,-7.2e-4 -0.3348879,0.14932 -0.334162,0.33417 v 0.33221 c -7.183e-4,0.18485 0.1493134,0.33488 0.334162,0.33416 0.1838321,-7.2e-4 0.3322774,-0.15033 0.3315628,-0.33416 v -0.33221 c 7.221e-4,-0.18384 -0.1477257,-0.33345 -0.3315628,-0.33417 z m 1.3295024,0 c -0.183838,7.2e-4 -0.332285,0.15033 -0.331563,0.33417 v 0.33221 c -7.15e-4,0.18383 0.14773,0.33344 0.331563,0.33416 0.184848,7.2e-4 0.33488,-0.14931 0.334161,-0.33416 v -0.33221 c 7.26e-4,-0.18485 -0.149308,-0.33489 -0.334161,-0.33417 z m 1.33145,0 c -0.183837,7.2e-4 -0.332285,0.15033 -0.331562,0.33417 v 0.33221 c -7.15e-4,0.18383 0.14773,0.33344 0.331562,0.33416 0.184849,7.3e-4 0.334882,-0.14931 0.334164,-0.33416 v -0.33221 c 7.26e-4,-0.18485 -0.14931,-0.3349 -0.334164,-0.33417 z m 1.332101,0 c -0.183837,7.2e-4 -0.332285,0.15033 -0.331563,0.33417 v 0.33221 c -7.14e-4,0.18383 0.147731,0.33344 0.331563,0.33416 0.184849,7.3e-4 0.334882,-0.14931 0.334163,-0.33416 v -0.33221 c 7.26e-4,-0.18485 -0.149309,-0.3349 -0.334163,-0.33417 z m 2.663552,0 c -0.184853,-7.2e-4 -0.334888,0.14932 -0.334162,0.33417 3.56e-4,0.18409 0.150072,0.33293 0.334162,0.33221 h 2.663554 c 0.183076,-7.1e-4 0.331209,-0.14914 0.331562,-0.33221 7.23e-4,-0.18384 -0.147725,-0.33345 -0.331562,-0.33417 z m -11.9837097,1.3321 c -0.1838371,7.2e-4 -0.3322849,0.15033 -0.3315628,0.33417 7.133e-4,0.18282 0.1487422,0.33084 0.3315628,0.33156 h 1.3321013 c 0.1828206,-7.2e-4 0.3308482,-0.14874 0.3315616,-0.33156 7.221e-4,-0.18384 -0.1477245,-0.33345 -0.3315616,-0.33417 z m 13.3151617,0 c -0.184853,-7.3e-4 -0.334889,0.14932 -0.334163,0.33417 7.17e-4,0.18384 0.150328,0.33228 0.334163,0.33156 h 1.332102 c 0.18282,-7.2e-4 0.330849,-0.14874 0.331562,-0.33156 7.23e-4,-0.18384 -0.147725,-0.33345 -0.331562,-0.33417 z m -10.6503087,0.003 c -0.1838359,-7.2e-4 -0.3334462,0.14772 -0.3341633,0.33156 -7.259e-4,0.18485 0.1493096,0.3349 0.3341633,0.33417 0.1838371,-7.2e-4 0.3322837,-0.15033 0.3315615,-0.33417 -7.133e-4,-0.18282 -0.1487409,-0.33085 -0.3315615,-0.33156 z m -1.9991282,1.66366 c -0.5475649,0 -0.9972914,0.45039 -0.9972876,0.99795 v 12.31526 c 0,0.91521 0.7484551,1.66562 1.6636641,1.66562 3.9943538,0 7.9887074,0 11.9830604,0 0.915209,0 1.663666,-0.75041 1.663664,-1.66562 7e-5,-4.10585 0,-8.20863 0,-12.31526 4e-6,-0.54756 -0.449722,-0.99795 -0.997288,-0.99795 h -4.66138 c -0.08832,-5e-4 -0.173208,0.0341 -0.235994,0.0962 l -0.567558,0.57016 h -2.38595 l -0.5701566,-0.57016 c -0.062148,-0.0615 -0.1459795,-0.096 -0.2333948,-0.0962 z m 0,0.66639 h 4.5216035 l 0.5701572,0.56755 c 0.062312,0.0626 0.1469772,0.098 0.2353448,0.0981 h 2.6616014 c 0.08837,-1.9e-4 0.173035,-0.0355 0.235345,-0.0981 l 0.568207,-0.56755 h 4.523554 c 0.187776,0 0.331564,0.14379 0.331562,0.33156 v 3.99499 h -1.663664 v -0.54544 c 0.217374,-0.17988 1.155579,-1.00215 1.042147,-2.47892 -0.0297,-0.38663 -0.350133,-0.63648 -0.710584,-0.63648 h -2.660952 c -0.360115,0 -0.682745,0.24734 -0.712534,0.63388 -0.113843,1.47746 0.826957,2.30187 1.044096,2.48152 v 0.54544 h -1.331451 v -0.33415 c 3e-6,-0.54756 -0.450376,-0.99729 -0.997937,-0.99729 h -1.997177 c -0.547565,0 -0.9979419,0.44973 -0.9979394,0.99729 v 0.33415 H 8.0122712 v -0.54544 c 0.2170802,-0.1796 1.1575524,-1.00184 1.0440964,-2.47892 -0.029703,-0.38661 -0.3494839,-0.63648 -0.7099344,-0.63648 H 5.682881 c -0.3601158,0 -0.6801447,0.24734 -0.7099344,0.63388 -0.1138422,1.47746 0.8269571,2.30187 1.0440977,2.48152 v 0.54544 h -1.717625 v -3.99499 c -1.3e-6,-0.18777 0.1437867,-0.33156 0.3315628,-0.33156 z m 3.7622599,1.3542 c 0.096531,1.28014 -0.9114713,2.03878 -0.9114713,2.03878 -0.084064,0.0633 -0.1332366,0.16263 -0.1326251,0.26786 v 0.66571 H 6.6827691 v -0.66571 c 0,-0.10568 -0.050184,-0.20511 -0.1352256,-0.26786 0,0 -1.0083321,-0.75827 -0.9114713,-2.03878 z m 8.599823,0 c 0.09653,1.28014 -0.911473,2.03878 -0.911473,2.03878 -0.08406,0.0633 -0.133236,0.16263 -0.132625,0.26786 v 0.66571 h -0.665725 v -0.66571 c 6.12e-4,-0.10518 -0.04856,-0.20455 -0.132625,-0.26786 0,0 -1.01094,-0.75955 -0.912123,-2.04204 z m -6.702764,2.30664 h 1.997177 c 0.187777,0 0.332212,0.14378 0.332211,0.33156 v 0.33415 H 9.9580876 v -0.33415 c -1.2e-6,-0.18778 0.1444344,-0.33156 0.3322134,-0.33156 z m -5.9908817,1.3321 H 18.278357 v 1.99522 h -0.665726 c -0.243704,0 -0.459949,0.13522 -0.576008,0.33416 h -1.5863 c -0.562885,-0.98851 -1.458293,-1.66366 -2.496471,-1.66366 -0.415258,0 -0.808424,0.10756 -1.166319,0.30036 -0.357441,-0.19178 -0.753204,-0.30036 -1.165669,-0.30036 -0.416211,0 -0.8093998,0.10844 -1.167621,0.30231 -0.3577922,-0.1929 -0.7532156,-0.30231 -1.1669703,-0.30231 -0.4747079,0 -0.9270323,0.14168 -1.3243,0.39072 -0.155893,0.0976 -0.2030591,0.30317 -0.1053251,0.459 0.097399,0.15611 0.3030022,0.20358 0.4589871,0.10593 0.3039483,-0.19055 0.6286546,-0.29257 0.970633,-0.29257 0.1874993,0 0.3698696,0.0312 0.546103,0.0903 -0.2718199,0.25432 -0.5107929,0.56285 -0.7086336,0.91017 H 5.5391988 C 5.423872,287.50965 5.2088525,287.37443 4.9651403,287.37443 h -0.665726 z m 6.3224447,1.32884 c 0.186123,0 0.367174,0.0307 0.542852,0.0891 -0.272591,0.25447 -0.512438,0.56355 -0.710585,0.91147 H 8.9152908 c 0.3590603,-0.54437 0.9081852,-1.00054 1.7065732,-1.00054 z m 2.331988,0 c 0.6438,0 1.248362,0.36536 1.706573,1.00054 h -3.415744 c 0.421474,-0.6102 1.0024,-1.00054 1.709171,-1.00054 z m -8.6544327,1.3321 h 0.6657261 v 1.33146 H 4.2994193 Z m 13.3132117,0 h 0.665726 v 1.33146 h -0.665726 z m -11.9837108,0.33369 h 9.6302668 1.687069 v 0.66832 H 10.196033 5.6289202 Z m -0.092971,1.33405 h 1.9620706 c -0.023928,0.21659 -0.036408,0.43849 -0.036408,0.66378 0,1.16672 0.3318496,2.2266 0.8900187,3.01461 0.1722957,0.24325 0.3681839,0.46093 0.5831593,0.64623 H 8.2872677 c -0.5881161,0 -1.1380084,-0.301 -1.5843495,-0.84061 -0.4463398,-0.53962 -0.7736277,-1.31399 -0.8776658,-2.20392 -0.02106,-0.18254 -0.1860576,-0.31349 -0.3686191,-0.29255 -0.1822847,0.0214 -0.3128667,0.18628 -0.2919049,0.36862 0.1174152,1.00432 0.483654,1.89669 1.0265439,2.55304 0.1253158,0.15149 0.26111,0.29096 0.4056767,0.41542 H 5.2973536 c -0.5554228,0 -0.9979393,-0.44449 -0.9979393,-0.9999 v -2.99511 h 0.665726 c 0.2415572,0 0.4547588,-0.13354 0.5708089,-0.32961 z m 2.6310463,0 H 9.82741 c -0.024029,0.2164 -0.036408,0.43833 -0.036408,0.66378 0,1.16672 0.33185,2.2266 0.890017,3.01461 0.172284,0.24324 0.367878,0.46094 0.583161,0.64623 h -0.642322 c -0.6543131,0 -1.2615278,-0.37213 -1.7273752,-1.0298 -0.4658473,-0.65767 -0.7690949,-1.59174 -0.7690949,-2.63104 0,-0.22683 0.01438,-0.44873 0.041604,-0.66378 z m 2.3319905,0 h 1.026544 c -0.05541,0.2087 -0.08581,0.43147 -0.08581,0.66313 0,0.5233 0.14878,1.00281 0.408277,1.36916 0.259499,0.36635 0.653334,0.62606 1.105858,0.62606 0.452525,0 0.845711,-0.25971 1.10521,-0.62606 0.259497,-0.36635 0.405675,-0.84586 0.405675,-1.36916 0,-0.23143 -0.02906,-0.45428 -0.08386,-0.66313 h 1.027843 c 0.02707,0.21515 0.0416,0.43758 0.0416,0.66378 0,1.0393 -0.303247,1.97337 -0.769095,2.63104 -0.465848,0.65767 -1.073061,1.0298 -1.727376,1.0298 -0.654314,0 -1.264129,-0.37213 -1.729976,-1.0298 -0.465847,-0.65767 -0.766495,-1.59174 -0.766495,-2.63104 0,-0.22644 0.01441,-0.44871 0.04161,-0.66378 z m 1.723475,0 h 1.461476 c 0.07219,0.19354 0.115075,0.4206 0.115075,0.66313 0,0.39587 -0.118233,0.74697 -0.285404,0.98298 -0.167177,0.23602 -0.361198,0.34651 -0.559756,0.34651 -0.198559,0 -0.395829,-0.11046 -0.563006,-0.34651 -0.167176,-0.23601 -0.284754,-0.58711 -0.284754,-0.98298 0,-0.24284 0.04345,-0.46968 0.116371,-0.66313 z m 3.855878,0 h 0.961531 c 0.116773,0.19607 0.331198,0.32961 0.572758,0.32961 h 0.665726 v 2.99511 c 0,0.55541 -0.442517,0.9999 -0.997938,0.9999 h -2.638849 c 0.214832,-0.18524 0.410312,-0.40312 0.58251,-0.64623 0.558169,-0.78801 0.891969,-1.84789 0.891969,-3.01461 0,-0.22536 -0.01307,-0.44722 -0.0377,-0.66378 z"
       sodipodi:nodetypes="sccccsccsccccsssccssccsccssccsccccccccccccsccsccssccsccssccsccssccsccsccccccccsccscccsccsccsssssscsccccsccccccssccccccsccccsssccccsssscccssscccccscccccsccccccccccccsssccsscccsccscscscccscccsccccccccccccccccccccccccccccccsscsscccscsscscccsscssscccsssssccssssscccssssscccscsscssc" />
  </g>
</svg>
